<?xml version="1.0" encoding="iso-8859-1"?>
<svg version="1.1" id="Capa_1" xmlns="http://www.w3.org/2000/svg" xmlns:xlink="http://www.w3.org/1999/xlink" x="0px" y="0px"
     width="32px" height="32px" viewBox="0 0 32 32" style="enable-background:new 0 0 32 32;" xml:space="preserve">
<g fill="white" stroke="white">
    <g id="menu">
        <g>
            <path d="M3,11h26c1.654,0,3-1.346,3-3s-1.346-3-3-3H3C1.346,5,0,6.346,0,8S1.346,11,3,11z M3,7h26c0.552,0,1,0.449,1,1
                c0,0.552-0.448,1-1,1H3C2.448,9,2,8.552,2,8C2,7.449,2.448,7,3,7z M29,13H3c-1.654,0-3,1.346-3,3c0,1.654,1.346,3,3,3h26
                c1.654,0,3-1.346,3-3C32,14.346,30.654,13,29,13z M29,17H3c-0.552,0-1-0.448-1-1s0.448-1,1-1h26c0.552,0,1,0.448,1,1
                S29.552,17,29,17z M29,21H3c-1.654,0-3,1.346-3,3s1.346,3,3,3h26c1.654,0,3-1.346,3-3S30.654,21,29,21z M29,25H3
                c-0.552,0-1-0.448-1-1s0.448-1,1-1h26c0.552,0,1,0.448,1,1S29.552,25,29,25z"/>
        </g>
    </g>
</g>
</svg>
